<svg xmlns="http://www.w3.org/2000/svg" xmlns:xlink="http://www.w3.org/1999/xlink"><defs>
        <clipPath id="prefix__clip-path">
            <rect id="prefix__Rectangle_26" width="16" height="10.5" data-name="Rectangle 26" rx="2" transform="translate(1193.401 56)" style="fill:#f10"/>
        </clipPath>
        <style>
            .prefix__cls-3{fill:#fff}
        </style>
    
        <clipPath id="prefix__clip-path">
            <rect id="prefix__Rectangle_26" width="16" height="10.5" class="prefix__cls-1" data-name="Rectangle 26" rx="2" transform="translate(1194 56)"/>
        </clipPath>
        <style>
            .prefix__cls-1{fill:#f10}
        </style>
    </defs><symbol id="icon-flag-be" viewBox="0 0 18 12.5">
    <g id="prefix__Group_317" data-name="Group 317" transform="translate(-1196.402 -62.56)">
        <g id="prefix__Group_173" data-name="Group 173" transform="translate(4 7.56)">
            <path id="prefix__Rectangle_25" d="M0 0H16V10.5H0z" data-name="Rectangle 25" transform="translate(1193.401 56)" style="fill:red"/>
            <path id="prefix__Rectangle_28" d="M0 0H16V3.5H0z" data-name="Rectangle 28" transform="translate(1193.401 63)" style="fill:#01953f"/>
        </g>
        <g id="prefix__Rectangle_75" data-name="Rectangle 75" transform="translate(1197.402 63.56)" style="stroke:#c4d6e4;fill:none">
            <rect width="16" height="10.5" rx="2" style="stroke:none"/>
            <rect width="17" height="11.5" x="-.5" y="-.5" rx="2.5" style="fill:none"/>
        </g>
    </g>
</symbol><symbol id="icon-flag-en" viewBox="0 0 18 12.5">
    
    <g id="prefix__Group_1166" data-name="Group 1166" transform="translate(-1209.402 -60)">
        <g id="prefix__Group_1165" data-name="Group 1165">
            <g id="prefix__Mask_Group_1" data-name="Mask Group 1" transform="translate(17 5)">
                <g id="prefix__Group_171" data-name="Group 171" transform="translate(871.201 5)">
                    <path id="prefix__Rectangle_76" d="M0 0H14.854V10.5H0z" class="prefix__cls-3" data-name="Rectangle 76" transform="translate(322.2 51)"/>
                    <path id="prefix__Path_7148" d="M322 61.5v-2.1h16.35v2.1zm0-6.3h16.35v2.1H322zm0-4.2h16.35v2.1H322z" data-name="Path 7148" transform="translate(.2)" style="fill:red"/>
                    <path id="prefix__Rectangle_77" d="M0 0H6.366V6.3H0z" data-name="Rectangle 77" transform="translate(322.2 51)" style="fill:#001468"/>
                    <path id="prefix__Path_7149" d="M329.244 56.888a.525.525 0 11.531-.525.529.529 0 01-.531.525zm0-1.838a.525.525 0 11.531-.525.529.529 0 01-.531.525zm-1.857 3.675a.525.525 0 11.531-.525.529.529 0 01-.531.525zm0-1.838a.525.525 0 11.531-.525.529.529 0 01-.531.526zm0-1.838a.525.525 0 11.531-.525.529.529 0 01-.531.526zm-1.857 3.675a.525.525 0 11.531-.525.529.529 0 01-.53.526zm0-1.838a.525.525 0 11.531-.525.529.529 0 01-.53.527zm0-1.838a.525.525 0 11.531-.525.529.529 0 01-.53.527zm3.714 2.625a.525.525 0 11-.531.525.529.529 0 01.531-.523z" class="prefix__cls-3" data-name="Path 7149" transform="translate(-2.004 -2.212)"/>
                </g>
            </g>
        </g>
        <g id="prefix__Rectangle_75" data-name="Rectangle 75" transform="translate(1210.402 61)" style="stroke:#c4d6e4;fill:none">
            <rect width="16" height="10.5" rx="2" style="stroke:none"/>
            <rect width="17" height="11.5" x="-.5" y="-.5" rx="2.5" style="fill:none"/>
        </g>
    </g>
</symbol><symbol id="icon-flag-ru" viewBox="0 0 18 12.5">
    
    <g id="prefix__flag" transform="translate(-1209.402 -60)">
        <g id="prefix__Mask_Group_1" data-name="Mask Group 1" transform="translate(16.401 5)">
            <rect id="prefix__Rectangle_25" width="16" height="10.5" data-name="Rectangle 25" rx="4" transform="translate(1194 56)" style="fill:#338ffa"/>
            <path id="prefix__Rectangle_27" d="M0 0H16V3.5H0z" data-name="Rectangle 27" transform="translate(1194 56)" style="fill:#fff"/>
            <path id="prefix__Rectangle_28" d="M0 0H16V3.5H0z" class="prefix__cls-1" data-name="Rectangle 28" transform="translate(1194 63)"/>
        </g>
        <g id="prefix__Rectangle_75" data-name="Rectangle 75" transform="translate(1210.402 61)" style="stroke:#c4d6e4;fill:none">
            <rect width="16" height="10.5" rx="2" style="stroke:none"/>
            <rect width="17" height="11.5" x="-.5" y="-.5" rx="2.5" style="fill:none"/>
        </g>
    </g>
</symbol><symbol id="icon-phone" viewBox="0 0 10.943 10.944"><g data-name="Shape 7" fill="none"><path d="M9.739 7.943a.413.413 0 01-.127.362L8.412 9.5a.678.678 0 01-.213.154.876.876 0 01-.258.081h-.172a4.155 4.155 0 01-.556-.059 4.227 4.227 0 01-.941-.29 7.886 7.886 0 01-1.262-.693 9.4 9.4 0 01-1.5-1.267 9.914 9.914 0 01-1.049-1.195 8.507 8.507 0 01-.669-1.054 5.684 5.684 0 01-.38-.878 4.673 4.673 0 01-.172-.679 2.245 2.245 0 01-.036-.448l.009-.181a.881.881 0 01.081-.258.678.678 0 01.154-.213l1.2-1.2a.4.4 0 01.289-.127.337.337 0 01.208.068.628.628 0 01.154.167l.968 1.837a.44.44 0 01.045.317.564.564 0 01-.154.289l-.443.444a.149.149 0 00-.032.059.225.225 0 00-.014.068 1.635 1.635 0 00.163.434 3.98 3.98 0 00.335.529 5.876 5.876 0 00.642.72 5.991 5.991 0 00.724.647 4.175 4.175 0 00.529.339 1.406 1.406 0 00.326.131l.113.023a.215.215 0 00.059-.014.15.15 0 00.059-.032l.516-.525a.554.554 0 01.38-.145.472.472 0 01.244.054h.009l1.746 1.032a.456.456 0 01.225.308z"/><path d="M7.768 9.744c.048 0 .087-.001.117-.004l.054-.005a.915.915 0 00.258-.081.7.7 0 00.213-.154l1.203-1.195a.414.414 0 00.126-.362.46.46 0 00-.226-.299L7.768 6.613h-.01a.462.462 0 00-.244-.055.559.559 0 00-.38.145l-.515.525a.153.153 0 01-.059.032.21.21 0 01-.059.013l-.113-.022a1.412 1.412 0 01-.325-.131 4.291 4.291 0 01-.53-.34 6.105 6.105 0 01-.723-.647 5.827 5.827 0 01-.642-.72 4.054 4.054 0 01-.335-.529 1.691 1.691 0 01-.163-.434c0-.018.005-.041.014-.068a.153.153 0 01.032-.059l.443-.444a.562.562 0 00.154-.289.439.439 0 00-.046-.317L3.3 1.436a.648.648 0 00-.154-.167.333.333 0 00-.208-.068.4.4 0 00-.29.126L1.445 2.531a.67.67 0 00-.153.213.849.849 0 00-.082.258l-.009.18c-.006.11.006.259.036.449s.088.416.172.679c.085.262.211.554.38.877.169.323.392.675.67 1.055.277.38.627.778 1.049 1.194.53.537 1.03.96 1.501 1.267.47.308.89.539 1.262.693.37.154.684.25.94.29.257.039.442.058.557.058m0 1.2c-.18 0-.415-.023-.739-.072-.354-.055-.752-.175-1.218-.368a9.023 9.023 0 01-1.46-.797c-.536-.35-1.105-.83-1.692-1.422a11.203 11.203 0 01-1.17-1.336 9.768 9.768 0 01-.763-1.206 6.658 6.658 0 01-.459-1.066 5.734 5.734 0 01-.215-.858 3.365 3.365 0 01-.049-.704l.007-.134v-.064l.012-.085a2.1 2.1 0 01.189-.61c.104-.216.24-.402.402-.556L1.8.479A1.6 1.6 0 012.938 0c.339 0 .66.107.929.309.175.131.325.294.445.483l.026.041.023.044.963 1.827c.19.347.246.738.163 1.133-.063.3-.2.576-.397.803l.05.07c.076.104.225.288.51.566l.009.009.009.01c.279.284.465.437.572.515l.052.038.015-.014.03-.027c.33-.294.737-.449 1.177-.449.158 0 .309.019.45.055h.132l.282.167 1.746 1.031.01.007.012.007c.407.253.68.637.77 1.082l.008.04.005.041a1.623 1.623 0 01-.468 1.366l-1.189 1.18a1.873 1.873 0 01-.553.4c-.199.096-.404.16-.611.19l-.084.011h-.032a2.51 2.51 0 01-.224.01z" fill="currentColor"/></g></symbol><symbol id="icon-point" viewBox="0 0 8.175 10.103"><path d="M4.091 0A4.1 4.1 0 000 4.1a3.509 3.509 0 00.073.752.763.763 0 00.015.124c.454 2.039 3.529 4.922 3.555 4.946a.619.619 0 00.448.181.663.663 0 00.439-.172l.034-.033c.725-.711 3.123-3.165 3.515-4.889l.007-.042A4.1 4.1 0 004.091 0zm-.008 1.281a2.814 2.814 0 012.811 2.811 3.182 3.182 0 01-.07.654v.005c-.284 1.185-2.04 3.087-2.733 3.8-.7-.719-2.474-2.633-2.738-3.782a.3.3 0 00-.017-.115 3.027 3.027 0 01-.057-.564 2.81 2.81 0 012.805-2.809z" data-name="Path 417" fill="#338ffa"/></symbol><symbol id="icon-search" viewBox="0 0 24 24">
    <path fill="currentColor" d="M23.809 21.646l-6.205-6.205a9.68 9.68 0 001.857-5.711C19.461 4.365 15.096 0 9.73 0 4.365 0 0 4.365 0 9.73c0 5.366 4.365 9.73 9.73 9.73a9.678 9.678 0 005.487-1.698L21.455 24l2.354-2.354zM2.854 9.73c0-3.792 3.085-6.877 6.877-6.877s6.877 3.085 6.877 6.877-3.085 6.877-6.877 6.877A6.884 6.884 0 012.854 9.73z"/>
</symbol></svg>